# xmcd
#
# Track frame offsets:
#	150
#	13834
#	28373
#	43437
#	59892
#	74319
#	91497
#	108450
#	124644
#
# Disc length: 1898 seconds
#
# Revision: 1
# Processed by: cddbd v1.5.2PL0 Copyright (c) Steve Scherf et al.
# Submitted via: audiograbber 1.83.01
#
DISCID=8a076809
DTITLE=Per Ellingsen - Lady J
DYEAR=2010
DGENRE=
TTITLE0=My Brother Knew This Guy
TTITLE1=Slow Dancers
TTITLE2=Lady J
TTITLE3=Someone Like You
TTITLE4=Mirage Bay
TTITLE5=That Little Bit of Twinge
TTITLE6=Welcome To My Heartbeat
TTITLE7=Side By Side
TTITLE8=Borderline
EXTD=
EXTT0=
EXTT1=
EXTT2=
EXTT3=
EXTT4=
EXTT5=
EXTT6=
EXTT7=
EXTT8=
PLAYORDER=
